<?xml version="1.0" standalone="no"?>
<!DOCTYPE svg PUBLIC "-//W3C//DTD SVG 20010904//EN"
 "http://www.w3.org/TR/2001/REC-SVG-20010904/DTD/svg10.dtd">
<svg version="1.0" xmlns="http://www.w3.org/2000/svg"
 width="300.000000pt" height="235.000000pt" viewBox="0 0 300.000000 235.000000"
 preserveAspectRatio="xMidYMid meet">
<metadata>
Created by potrace 1.10, written by Peter Selinger 2001-2011
</metadata>
<g transform="translate(0.000000,235.000000) scale(0.100000,-0.100000)"
fill="#000000" stroke="none">
<path d="M1258 2243 c-16 -4 -18 -17 -18 -94 l0 -89 -485 0 -485 0 0 -1030 c0
-909 2 -1030 15 -1030 12 0 15 19 15 115 l0 115 1185 0 1185 0 0 -115 c0 -108
1 -115 20 -115 20 0 20 7 20 1030 l0 1030 -488 0 -488 0 4 89 4 88 -32 7 c-36
7 -425 6 -452 -1z m32 -108 c0 -43 -4 -75 -10 -75 -5 0 -10 20 -10 44 0 44 9
106 16 106 2 0 4 -34 4 -75z m409 -2 c-1 -57 -3 -70 -9 -48 -11 45 -11 125 0
125 6 0 10 -32 9 -77z m-49 -10 l0 -68 -162 2 -162 2 -1 65 0 66 162 0 163 0
0 -67z m1022 -380 c-2 -167 -7 -282 -13 -290 -7 -8 -7 -18 0 -31 7 -13 11
-222 13 -596 l3 -576 -1187 0 -1188 0 0 885 0 885 1188 0 1187 0 -3 -277z"/>
<path d="M350 1800 c0 -5 14 -10 30 -10 17 0 30 5 30 10 0 6 -13 10 -30 10
-16 0 -30 -4 -30 -10z"/>
<path d="M440 1800 c0 -5 14 -10 30 -10 17 0 30 5 30 10 0 6 -13 10 -30 10
-16 0 -30 -4 -30 -10z"/>
<path d="M530 1800 c0 -5 16 -10 36 -10 21 0 33 4 29 10 -3 6 -19 10 -36 10
-16 0 -29 -4 -29 -10z"/>
<path d="M625 1800 c3 -5 19 -10 36 -10 16 0 29 5 29 10 0 6 -16 10 -36 10
-21 0 -33 -4 -29 -10z"/>
<path d="M710 1800 c0 -5 13 -10 29 -10 17 0 33 5 36 10 4 6 -8 10 -29 10 -20
0 -36 -4 -36 -10z"/>
<path d="M810 1800 c0 -5 13 -10 29 -10 17 0 33 5 36 10 4 6 -8 10 -29 10 -20
0 -36 -4 -36 -10z"/>
<path d="M900 1800 c0 -5 14 -10 30 -10 17 0 30 5 30 10 0 6 -13 10 -30 10
-16 0 -30 -4 -30 -10z"/>
<path d="M990 1800 c0 -5 16 -10 35 -10 19 0 35 5 35 10 0 6 -16 10 -35 10
-19 0 -35 -4 -35 -10z"/>
<path d="M1090 1800 c0 -5 14 -10 30 -10 17 0 30 5 30 10 0 6 -13 10 -30 10
-16 0 -30 -4 -30 -10z"/>
<path d="M1175 1800 c3 -5 19 -10 36 -10 16 0 29 5 29 10 0 6 -16 10 -36 10
-21 0 -33 -4 -29 -10z"/>
<path d="M1275 1800 c3 -5 19 -10 36 -10 16 0 29 5 29 10 0 6 -16 10 -36 10
-21 0 -33 -4 -29 -10z"/>
<path d="M1360 1800 c0 -5 13 -10 29 -10 17 0 33 5 36 10 4 6 -8 10 -29 10
-20 0 -36 -4 -36 -10z"/>
<path d="M1450 1800 c0 -5 16 -10 35 -10 19 0 35 5 35 10 0 6 -16 10 -35 10
-19 0 -35 -4 -35 -10z"/>
<path d="M1550 1800 c0 -5 14 -10 30 -10 17 0 30 5 30 10 0 6 -13 10 -30 10
-16 0 -30 -4 -30 -10z"/>
<path d="M1640 1800 c0 -5 14 -10 30 -10 17 0 30 5 30 10 0 6 -13 10 -30 10
-16 0 -30 -4 -30 -10z"/>
<path d="M1740 1800 c0 -5 14 -10 30 -10 17 0 30 5 30 10 0 6 -13 10 -30 10
-16 0 -30 -4 -30 -10z"/>
<path d="M1830 1800 c0 -5 14 -10 30 -10 17 0 30 5 30 10 0 6 -13 10 -30 10
-16 0 -30 -4 -30 -10z"/>
<path d="M1910 1800 c0 -5 16 -10 35 -10 19 0 35 5 35 10 0 6 -16 10 -35 10
-19 0 -35 -4 -35 -10z"/>
<path d="M2010 1800 c0 -5 13 -10 29 -10 17 0 33 5 36 10 4 6 -8 10 -29 10
-20 0 -36 -4 -36 -10z"/>
<path d="M2100 1800 c0 -5 14 -10 30 -10 17 0 30 5 30 10 0 6 -13 10 -30 10
-16 0 -30 -4 -30 -10z"/>
<path d="M2200 1800 c0 -5 14 -10 30 -10 17 0 30 5 30 10 0 6 -13 10 -30 10
-16 0 -30 -4 -30 -10z"/>
<path d="M2290 1800 c0 -5 14 -10 30 -10 17 0 30 5 30 10 0 6 -13 10 -30 10
-16 0 -30 -4 -30 -10z"/>
<path d="M2380 1800 c0 -5 16 -10 36 -10 21 0 33 4 29 10 -3 6 -19 10 -36 10
-16 0 -29 -4 -29 -10z"/>
<path d="M2475 1800 c3 -5 19 -10 36 -10 16 0 29 5 29 10 0 6 -16 10 -36 10
-21 0 -33 -4 -29 -10z"/>
<path d="M2560 1800 c0 -5 16 -10 35 -10 19 0 35 5 35 10 0 6 -16 10 -35 10
-19 0 -35 -4 -35 -10z"/>
<path d="M350 1441 c0 -13 27 -21 45 -15 25 10 17 24 -15 24 -16 0 -30 -4 -30
-9z"/>
<path d="M440 1441 c0 -13 27 -21 45 -15 25 10 17 24 -15 24 -16 0 -30 -4 -30
-9z"/>
<path d="M530 1441 c0 -13 30 -22 52 -16 10 4 16 11 13 16 -8 12 -65 12 -65 0z"/>
<path d="M626 1441 c-7 -11 31 -22 50 -14 8 3 14 9 14 14 0 12 -57 12 -64 0z"/>
<path d="M710 1441 c0 -5 8 -11 18 -13 25 -6 53 2 47 13 -8 12 -65 12 -65 0z"/>
<path d="M810 1441 c0 -5 6 -11 14 -14 19 -8 57 3 50 14 -7 12 -64 12 -64 0z"/>
<path d="M900 1441 c0 -13 27 -21 45 -15 25 10 17 24 -15 24 -16 0 -30 -4 -30
-9z"/>
<path d="M990 1441 c0 -11 29 -18 53 -13 30 6 18 22 -18 22 -19 0 -35 -4 -35
-9z"/>
<path d="M1090 1441 c0 -13 27 -21 45 -15 25 10 17 24 -15 24 -16 0 -30 -4
-30 -9z"/>
<path d="M1176 1441 c-7 -11 31 -22 50 -14 8 3 14 9 14 14 0 12 -57 12 -64 0z"/>
<path d="M1276 1441 c-7 -11 31 -22 50 -14 8 3 14 9 14 14 0 12 -57 12 -64 0z"/>
<path d="M1360 1441 c0 -5 6 -11 14 -14 19 -8 57 3 50 14 -7 12 -64 12 -64 0z"/>
<path d="M1450 1441 c0 -12 36 -20 60 -14 11 3 17 9 14 14 -7 12 -74 12 -74 0z"/>
<path d="M1550 1441 c0 -13 27 -21 45 -15 25 10 17 24 -15 24 -16 0 -30 -4
-30 -9z"/>
<path d="M1640 1441 c0 -13 27 -21 45 -15 25 10 17 24 -15 24 -16 0 -30 -4
-30 -9z"/>
<path d="M1740 1441 c0 -13 27 -21 45 -15 25 10 17 24 -15 24 -16 0 -30 -4
-30 -9z"/>
<path d="M1830 1441 c0 -13 27 -21 45 -15 25 10 17 24 -15 24 -16 0 -30 -4
-30 -9z"/>
<path d="M1916 1441 c-3 -5 3 -11 14 -14 24 -6 60 2 60 14 0 12 -67 12 -74 0z"/>
<path d="M2010 1441 c0 -5 8 -11 18 -13 25 -6 53 2 47 13 -8 12 -65 12 -65 0z"/>
<path d="M2100 1441 c0 -13 27 -21 45 -15 25 10 17 24 -15 24 -16 0 -30 -4
-30 -9z"/>
<path d="M2200 1441 c0 -13 27 -21 45 -15 25 10 17 24 -15 24 -16 0 -30 -4
-30 -9z"/>
<path d="M2290 1441 c0 -13 27 -21 45 -15 25 10 17 24 -15 24 -16 0 -30 -4
-30 -9z"/>
<path d="M2380 1441 c0 -13 30 -22 52 -16 10 4 16 11 13 16 -8 12 -65 12 -65
0z"/>
<path d="M2476 1441 c-7 -11 31 -22 50 -14 8 3 14 9 14 14 0 12 -57 12 -64 0z"/>
<path d="M2560 1441 c0 -5 8 -11 18 -13 25 -6 53 2 47 13 -8 12 -65 12 -65 0z"/>
</g>
</svg>
