<?xml version="1.0" standalone="no"?>
<!DOCTYPE svg PUBLIC "-//W3C//DTD SVG 20010904//EN"
 "http://www.w3.org/TR/2001/REC-SVG-20010904/DTD/svg10.dtd">
<svg version="1.0" xmlns="http://www.w3.org/2000/svg"
 width="212.000000pt" height="300.000000pt" viewBox="0 0 212.000000 300.000000"
 preserveAspectRatio="xMidYMid meet">
<metadata>
Created by potrace 1.10, written by Peter Selinger 2001-2011
</metadata>
<g transform="translate(0.000000,300.000000) scale(0.100000,-0.100000)"
fill="#000000" stroke="none">
<path d="M875 2920 c-4 -6 -5 -36 -3 -66 l3 -56 -340 -1 -340 -2 -3 -1292 -2
-1293 343 0 342 0 0 -62 0 -63 180 0 180 0 0 63 0 62 343 0 342 0 -2 1293 -3
1292 -339 1 -339 2 -1 63 -1 64 -177 3 c-118 2 -179 -1 -183 -8z m45 -75 c0
-30 -4 -55 -10 -55 -5 0 -10 25 -10 55 0 30 5 55 10 55 6 0 10 -25 10 -55z
m290 0 c0 -30 -4 -55 -10 -55 -5 0 -10 25 -10 55 0 30 5 55 10 55 6 0 10 -25
10 -55z m-40 -5 l0 -50 -115 0 -115 0 0 50 0 50 115 0 115 0 0 -50z m722 -90
c-3 -14 -3 -1206 1 -1220 1 -8 -258 -12 -836 -13 l-837 -2 0 625 0 625 838 -2
c588 -2 836 -6 834 -13z m3 -1885 l0 -625 -843 0 c-527 0 -841 4 -837 9 3 6 5
287 5 625 l0 616 837 0 838 0 0 -625z m-975 -700 c0 -30 -4 -55 -10 -55 -5 0
-10 25 -10 55 0 30 5 55 10 55 6 0 10 -25 10 -55z m290 0 c0 -30 -4 -55 -10
-55 -11 0 -14 93 -3 103 12 12 13 8 13 -48z m-40 0 l0 -45 -115 0 -115 0 0 45
0 45 115 0 115 0 0 -45z"/>
<path d="M250 2356 c0 -10 9 -16 21 -16 24 0 21 23 -4 28 -10 2 -17 -3 -17
-12z"/>
<path d="M317 2364 c-14 -14 -7 -25 13 -22 12 2 21 8 21 13 0 12 -24 18 -34 9z"/>
<path d="M380 2356 c0 -10 9 -16 21 -16 24 0 21 23 -4 28 -10 2 -17 -3 -17
-12z"/>
<path d="M447 2364 c-14 -14 -7 -25 13 -22 12 2 21 8 21 13 0 12 -24 18 -34 9z"/>
<path d="M510 2355 c0 -8 9 -15 20 -15 11 0 20 7 20 15 0 8 -9 15 -20 15 -11
0 -20 -7 -20 -15z"/>
<path d="M577 2364 c-11 -11 3 -24 24 -24 12 0 19 5 17 13 -5 14 -31 21 -41
11z"/>
<path d="M647 2363 c-13 -12 -7 -23 13 -23 11 0 20 7 20 15 0 15 -21 21 -33 8z"/>
<path d="M707 2364 c-11 -11 3 -24 24 -24 12 0 19 5 17 13 -5 14 -31 21 -41
11z"/>
<path d="M777 2364 c-14 -14 -7 -25 13 -22 12 2 21 8 21 13 0 12 -24 18 -34 9z"/>
<path d="M837 2364 c-11 -11 3 -24 24 -24 12 0 19 5 17 13 -5 14 -31 21 -41
11z"/>
<path d="M907 2364 c-14 -14 -7 -25 13 -22 12 2 21 8 21 13 0 12 -24 18 -34 9z"/>
<path d="M970 2355 c0 -8 9 -15 20 -15 11 0 20 7 20 15 0 8 -9 15 -20 15 -11
0 -20 -7 -20 -15z"/>
<path d="M1035 2360 c-8 -12 20 -24 35 -15 6 3 8 11 5 16 -8 12 -32 12 -40 -1z"/>
<path d="M1100 2355 c0 -8 9 -15 20 -15 11 0 20 7 20 15 0 8 -9 15 -20 15 -11
0 -20 -7 -20 -15z"/>
<path d="M1167 2364 c-11 -11 3 -24 24 -24 12 0 19 5 17 13 -5 14 -31 21 -41
11z"/>
<path d="M1237 2364 c-14 -14 -7 -25 13 -22 12 2 21 8 21 13 0 12 -24 18 -34
9z"/>
<path d="M1297 2364 c-11 -11 3 -24 24 -24 12 0 19 5 17 13 -5 14 -31 21 -41
11z"/>
<path d="M1367 2364 c-14 -14 -7 -25 13 -22 12 2 21 8 21 13 0 12 -24 18 -34
9z"/>
<path d="M1430 2356 c0 -10 9 -16 21 -16 24 0 21 23 -4 28 -10 2 -17 -3 -17
-12z"/>
<path d="M1497 2364 c-14 -14 -7 -25 13 -22 12 2 21 8 21 13 0 12 -24 18 -34
9z"/>
<path d="M1560 2356 c0 -10 9 -16 21 -16 24 0 21 23 -4 28 -10 2 -17 -3 -17
-12z"/>
<path d="M1627 2364 c-11 -11 3 -24 24 -24 12 0 19 5 17 13 -5 14 -31 21 -41
11z"/>
<path d="M1697 2363 c-13 -12 -7 -23 13 -23 11 0 20 7 20 15 0 15 -21 21 -33
8z"/>
<path d="M1757 2364 c-11 -11 3 -24 24 -24 12 0 19 5 17 13 -5 14 -31 21 -41
11z"/>
<path d="M1827 2364 c-14 -14 -7 -25 13 -22 12 2 21 8 21 13 0 12 -24 18 -34
9z"/>
<path d="M250 656 c0 -10 9 -16 21 -16 24 0 21 23 -4 28 -10 2 -17 -3 -17 -12z"/>
<path d="M317 664 c-14 -14 -7 -25 13 -22 12 2 21 8 21 13 0 12 -24 18 -34 9z"/>
<path d="M380 656 c0 -10 9 -16 21 -16 24 0 21 23 -4 28 -10 2 -17 -3 -17 -12z"/>
<path d="M447 664 c-14 -14 -6 -24 19 -24 16 0 24 5 22 13 -5 14 -31 21 -41
11z"/>
<path d="M517 663 c-13 -12 -7 -23 13 -23 11 0 20 7 20 15 0 15 -21 21 -33 8z"/>
<path d="M577 664 c-11 -11 3 -24 24 -24 12 0 19 5 17 13 -5 14 -31 21 -41 11z"/>
<path d="M647 663 c-13 -12 -7 -23 13 -23 11 0 20 7 20 15 0 15 -21 21 -33 8z"/>
<path d="M707 664 c-11 -11 3 -24 24 -24 12 0 19 5 17 13 -5 14 -31 21 -41 11z"/>
<path d="M777 664 c-14 -14 -7 -25 13 -22 12 2 21 8 21 13 0 12 -24 18 -34 9z"/>
<path d="M837 664 c-11 -11 3 -24 24 -24 12 0 19 5 17 13 -5 14 -31 21 -41 11z"/>
<path d="M907 664 c-14 -14 -7 -25 13 -22 12 2 21 8 21 13 0 12 -24 18 -34 9z"/>
<path d="M970 655 c0 -8 9 -15 20 -15 11 0 20 7 20 15 0 8 -9 15 -20 15 -11 0
-20 -7 -20 -15z"/>
<path d="M1037 664 c-11 -11 3 -24 24 -24 12 0 19 5 17 13 -5 14 -31 21 -41
11z"/>
<path d="M1100 655 c0 -8 9 -15 20 -15 11 0 20 7 20 15 0 8 -9 15 -20 15 -11
0 -20 -7 -20 -15z"/>
<path d="M1167 664 c-11 -11 3 -24 24 -24 12 0 19 5 17 13 -5 14 -31 21 -41
11z"/>
<path d="M1237 664 c-14 -14 -7 -25 13 -22 12 2 21 8 21 13 0 12 -24 18 -34 9z"/>
<path d="M1297 664 c-11 -11 3 -24 24 -24 12 0 19 5 17 13 -5 14 -31 21 -41
11z"/>
<path d="M1367 664 c-14 -14 -7 -25 13 -22 12 2 21 8 21 13 0 12 -24 18 -34 9z"/>
<path d="M1430 656 c0 -10 9 -16 21 -16 24 0 21 23 -4 28 -10 2 -17 -3 -17
-12z"/>
<path d="M1497 664 c-14 -14 -6 -24 19 -24 16 0 24 5 22 13 -5 14 -31 21 -41
11z"/>
<path d="M1560 655 c0 -8 9 -15 20 -15 11 0 20 7 20 15 0 8 -9 15 -20 15 -11
0 -20 -7 -20 -15z"/>
<path d="M1627 664 c-14 -14 -6 -24 19 -24 16 0 24 5 22 13 -5 14 -31 21 -41
11z"/>
<path d="M1697 663 c-13 -12 -7 -23 13 -23 11 0 20 7 20 15 0 15 -21 21 -33 8z"/>
<path d="M1757 664 c-11 -11 3 -24 24 -24 12 0 19 5 17 13 -5 14 -31 21 -41
11z"/>
<path d="M1827 663 c-13 -12 -7 -23 13 -23 11 0 20 7 20 15 0 15 -21 21 -33 8z"/>
<path d="M310 401 c0 -15 16 -22 34 -15 25 9 19 24 -9 24 -14 0 -25 -4 -25 -9z"/>
<path d="M440 401 c0 -12 29 -23 41 -15 18 10 9 24 -16 24 -14 0 -25 -4 -25
-9z"/>
<path d="M570 401 c0 -11 21 -19 38 -14 21 8 13 23 -13 23 -14 0 -25 -4 -25
-9z"/>
<path d="M770 401 c0 -15 16 -22 34 -15 25 9 19 24 -9 24 -14 0 -25 -4 -25 -9z"/>
<path d="M836 401 c-7 -11 22 -23 35 -15 5 3 9 9 9 15 0 12 -37 12 -44 0z"/>
<path d="M900 401 c0 -11 21 -19 38 -14 21 8 13 23 -13 23 -14 0 -25 -4 -25
-9z"/>
<path d="M1030 401 c0 -11 21 -19 38 -14 21 8 13 23 -13 23 -14 0 -25 -4 -25
-9z"/>
<path d="M1160 401 c0 -11 21 -19 38 -14 21 8 13 23 -13 23 -14 0 -25 -4 -25
-9z"/>
<path d="M1230 401 c0 -6 4 -12 9 -15 13 -8 42 4 35 15 -7 12 -44 12 -44 0z"/>
<path d="M1296 401 c-7 -11 22 -23 35 -15 5 3 9 9 9 15 0 12 -37 12 -44 0z"/>
<path d="M1490 401 c0 -11 21 -19 38 -14 21 8 13 23 -13 23 -14 0 -25 -4 -25
-9z"/>
<path d="M1560 401 c0 -6 4 -12 9 -15 13 -8 42 4 35 15 -7 12 -44 12 -44 0z"/>
<path d="M1620 401 c0 -12 29 -23 41 -15 18 10 9 24 -16 24 -14 0 -25 -4 -25
-9z"/>
<path d="M1690 401 c0 -6 4 -12 9 -15 13 -8 42 4 35 15 -7 12 -44 12 -44 0z"/>
<path d="M1756 401 c-7 -11 22 -23 35 -15 5 3 9 9 9 15 0 12 -37 12 -44 0z"/>
</g>
</svg>
